<svg width="20" height="17" viewBox="0 0 20 17" fill="none" xmlns="http://www.w3.org/2000/svg">
<path d="M17.9297 4.4375C17.9557 4.54167 17.9688 4.71094 17.9688 4.94531C17.9688 6.82031 17.513 8.63021 16.6016 10.375C15.6641 12.224 14.349 13.6953 12.6562 14.7891C10.8073 16.013 8.6849 16.625 6.28906 16.625C3.9974 16.625 1.90104 16.013 0 14.7891C0.286458 14.8151 0.611979 14.8281 0.976562 14.8281C2.8776 14.8281 4.58333 14.2422 6.09375 13.0703C5.18229 13.0703 4.375 12.8099 3.67188 12.2891C2.99479 11.7422 2.52604 11.0651 2.26562 10.2578C2.52604 10.2839 2.77344 10.2969 3.00781 10.2969C3.3724 10.2969 3.73698 10.2578 4.10156 10.1797C3.16406 9.97135 2.38281 9.48958 1.75781 8.73438C1.13281 7.97917 0.820312 7.11979 0.820312 6.15625V6.07812C1.39323 6.41667 2.00521 6.59896 2.65625 6.625C2.10938 6.23438 1.66667 5.73958 1.32812 5.14062C0.989583 4.54167 0.820312 3.89062 0.820312 3.1875C0.820312 2.45833 1.01562 1.76823 1.40625 1.11719C2.42188 2.39323 3.65885 3.40885 5.11719 4.16406C6.60156 4.91927 8.17708 5.33594 9.84375 5.41406C9.79167 5.10156 9.76562 4.78906 9.76562 4.47656C9.76562 3.7474 9.94792 3.07031 10.3125 2.44531C10.6771 1.79427 11.1719 1.28646 11.7969 0.921875C12.4219 0.557292 13.099 0.375 13.8281 0.375C14.4271 0.375 14.974 0.492188 15.4688 0.726562C15.9896 0.960938 16.4453 1.27344 16.8359 1.66406C17.7734 1.48177 18.6458 1.15625 19.4531 0.6875C19.1406 1.65104 18.5417 2.40625 17.6562 2.95312C18.4375 2.84896 19.2188 2.6276 20 2.28906C19.4271 3.1224 18.737 3.83854 17.9297 4.4375Z" fill="#1C9CEA"/>
</svg>
