<svg width="22" height="23" viewBox="0 0 22 23" fill="none" xmlns="http://www.w3.org/2000/svg">
<path d="M7.91016 8.69531C8.04036 8.5651 8.18685 8.5 8.34961 8.5C8.51237 8.46745 8.9681 8.45117 9.7168 8.45117H10.9375C11.0677 8.45117 11.1816 8.48372 11.2793 8.54883C11.5397 8.67904 11.6699 8.89062 11.6699 9.18359C11.6699 9.47656 11.556 9.70443 11.3281 9.86719C11.263 9.89974 11.1491 9.93229 10.9863 9.96484H9.76562C8.85417 9.96484 8.34961 9.94857 8.25195 9.91602C7.99154 9.85091 7.82878 9.68815 7.76367 9.42773C7.69857 9.13477 7.7474 8.89062 7.91016 8.69531ZM10.9375 13.2852C9.63542 13.2852 8.83789 13.3014 8.54492 13.334C8.28451 13.3665 8.10547 13.4316 8.00781 13.5293C7.91016 13.5944 7.82878 13.6921 7.76367 13.8223C7.73112 13.9525 7.71484 14.0827 7.71484 14.2129C7.7474 14.3105 7.79622 14.4245 7.86133 14.5547C7.95898 14.6523 8.07292 14.7337 8.20312 14.7988C8.33333 14.8314 9.24479 14.8477 10.9375 14.8477L13.2812 14.7988L13.7207 14.75C13.9486 14.6198 14.0788 14.4245 14.1113 14.1641C14.1439 13.9036 14.0625 13.6921 13.8672 13.5293C13.737 13.4316 13.5417 13.3828 13.2812 13.3828C13.0534 13.3503 12.2721 13.334 10.9375 13.334V13.2852ZM21.8262 19.6816C21.7611 20.3652 21.5007 20.9512 21.0449 21.4395C20.5892 21.9603 20.0195 22.3021 19.3359 22.4648C19.1732 22.4974 18.7174 22.5299 17.9688 22.5625H3.90625C3.125 22.5299 2.65299 22.4974 2.49023 22.4648C2.09961 22.3672 1.72526 22.2044 1.36719 21.9766C1.04167 21.7487 0.764974 21.472 0.537109 21.1465C0.341797 20.8535 0.195312 20.5117 0.0976562 20.1211C0.0651042 19.9583 0.0325521 19.5026 0 18.7539V4.54492C0 3.79622 0.0325521 3.34049 0.0976562 3.17773C0.260417 2.55924 0.553385 2.03841 0.976562 1.61523C1.43229 1.19206 1.9694 0.899089 2.58789 0.736328C2.75065 0.703776 5.5013 0.6875 10.8398 0.6875C16.2109 0.6875 18.9941 0.703776 19.1895 0.736328C20.2637 0.964193 21.0449 1.55013 21.5332 2.49414L21.582 2.68945C21.6797 2.85221 21.7448 3.03125 21.7773 3.22656C21.8099 3.51953 21.8424 4.10547 21.875 4.98438V11.332C21.875 16.6055 21.8587 19.3887 21.8262 19.6816ZM17.6758 10.5996C17.6107 10.3392 17.4805 10.1602 17.2852 10.0625C17.2201 10.0299 16.9759 9.9974 16.5527 9.96484L15.9668 9.91602C15.8691 9.91602 15.7552 9.88346 15.625 9.81836C15.4948 9.7207 15.3971 9.62305 15.332 9.52539C15.2995 9.39518 15.2832 9.19987 15.2832 8.93945C15.2832 7.93034 14.8763 7.0026 14.0625 6.15625C13.444 5.57031 12.7767 5.16341 12.0605 4.93555C11.8978 4.90299 11.263 4.87044 10.1562 4.83789C9.11458 4.83789 8.39844 4.85417 8.00781 4.88672C7.61719 4.91927 7.24284 5.01693 6.88477 5.17969C6.20117 5.4401 5.63151 5.83073 5.17578 6.35156C4.7526 6.8724 4.44336 7.49089 4.24805 8.20703C4.21549 8.40234 4.18294 9.44401 4.15039 11.332C4.15039 12.8945 4.15039 13.9036 4.15039 14.3594C4.18294 14.8151 4.24805 15.1895 4.3457 15.4824C4.57357 16.1986 4.98047 16.8171 5.56641 17.3379C6.1849 17.8587 6.83594 18.1842 7.51953 18.3145C7.7474 18.347 8.82161 18.3796 10.7422 18.4121C12.6628 18.4121 13.7695 18.3958 14.0625 18.3633C15.0065 18.2331 15.8203 17.8099 16.5039 17.0938C17.0247 16.5729 17.3828 15.9382 17.5781 15.1895C17.6432 14.9616 17.6758 14.1966 17.6758 12.8945C17.7083 11.5599 17.7083 10.7949 17.6758 10.5996Z" fill="#44566C"/>
</svg>
