<svg width="18" height="19" viewBox="0 0 18 19" fill="none" xmlns="http://www.w3.org/2000/svg">
<path d="M8.75 5.00781C7.94271 5.00781 7.1875 5.21615 6.48438 5.63281C5.80729 6.02344 5.26042 6.57031 4.84375 7.27344C4.45312 7.95052 4.25781 8.69271 4.25781 9.5C4.25781 10.3073 4.45312 11.0625 4.84375 11.7656C5.26042 12.4427 5.80729 12.9896 6.48438 13.4062C7.1875 13.7969 7.94271 13.9922 8.75 13.9922C9.55729 13.9922 10.2995 13.7969 10.9766 13.4062C11.6797 12.9896 12.2266 12.4427 12.6172 11.7656C13.0339 11.0625 13.2422 10.3073 13.2422 9.5C13.2422 8.69271 13.0339 7.95052 12.6172 7.27344C12.2266 6.57031 11.6797 6.02344 10.9766 5.63281C10.2995 5.21615 9.55729 5.00781 8.75 5.00781ZM8.75 12.4297C7.94271 12.4297 7.2526 12.1432 6.67969 11.5703C6.10677 10.9974 5.82031 10.3073 5.82031 9.5C5.82031 8.69271 6.10677 8.0026 6.67969 7.42969C7.2526 6.85677 7.94271 6.57031 8.75 6.57031C9.55729 6.57031 10.2474 6.85677 10.8203 7.42969C11.3932 8.0026 11.6797 8.69271 11.6797 9.5C11.6797 10.3073 11.3932 10.9974 10.8203 11.5703C10.2474 12.1432 9.55729 12.4297 8.75 12.4297ZM14.4922 4.8125C14.4661 5.09896 14.349 5.34635 14.1406 5.55469C13.9583 5.76302 13.724 5.86719 13.4375 5.86719C13.151 5.86719 12.9036 5.76302 12.6953 5.55469C12.487 5.34635 12.3828 5.09896 12.3828 4.8125C12.3828 4.52604 12.487 4.27865 12.6953 4.07031C12.9036 3.86198 13.151 3.75781 13.4375 3.75781C13.724 3.75781 13.9714 3.86198 14.1797 4.07031C14.388 4.27865 14.4922 4.52604 14.4922 4.8125ZM17.4609 5.86719C17.4089 5.11198 17.2917 4.46094 17.1094 3.91406C16.875 3.26302 16.5104 2.70312 16.0156 2.23438C15.5469 1.73958 14.987 1.375 14.3359 1.14062C13.7891 0.958333 13.138 0.854167 12.3828 0.828125C11.6536 0.776042 10.4427 0.75 8.75 0.75C7.05729 0.75 5.83333 0.776042 5.07812 0.828125C4.34896 0.854167 3.71094 0.958333 3.16406 1.14062C2.51302 1.375 1.9401 1.73958 1.44531 2.23438C0.976562 2.70312 0.625 3.26302 0.390625 3.91406C0.208333 4.46094 0.0911458 5.11198 0.0390625 5.86719C0.0130208 6.59635 0 7.80729 0 9.5C0 11.1927 0.0130208 12.4167 0.0390625 13.1719C0.0911458 13.901 0.208333 14.5391 0.390625 15.0859C0.625 15.737 0.976562 16.3099 1.44531 16.8047C1.9401 17.2734 2.51302 17.612 3.16406 17.8203C3.71094 18.0286 4.34896 18.1458 5.07812 18.1719C5.83333 18.224 7.05729 18.25 8.75 18.25C10.4427 18.25 11.6536 18.224 12.3828 18.1719C13.138 18.1458 13.7891 18.0417 14.3359 17.8594C14.987 17.625 15.5469 17.2734 16.0156 16.8047C16.5104 16.3099 16.875 15.737 17.1094 15.0859C17.2917 14.5391 17.3958 13.901 17.4219 13.1719C17.474 12.4167 17.5 11.1927 17.5 9.5C17.5 7.80729 17.487 6.59635 17.4609 5.86719ZM15.5859 14.6562C15.2734 15.4375 14.7135 15.9974 13.9062 16.3359C13.4896 16.4922 12.7865 16.5964 11.7969 16.6484C11.25 16.6745 10.4427 16.6875 9.375 16.6875H8.125C7.08333 16.6875 6.27604 16.6745 5.70312 16.6484C4.73958 16.5964 4.03646 16.4922 3.59375 16.3359C2.8125 16.0234 2.2526 15.4635 1.91406 14.6562C1.75781 14.2135 1.65365 13.5104 1.60156 12.5469C1.57552 11.974 1.5625 11.1667 1.5625 10.125V8.875C1.5625 7.83333 1.57552 7.02604 1.60156 6.45312C1.65365 5.46354 1.75781 4.76042 1.91406 4.34375C2.22656 3.53646 2.78646 2.97656 3.59375 2.66406C4.03646 2.50781 4.73958 2.40365 5.70312 2.35156C6.27604 2.32552 7.08333 2.3125 8.125 2.3125H9.375C10.4167 2.3125 11.224 2.32552 11.7969 2.35156C12.7865 2.40365 13.4896 2.50781 13.9062 2.66406C14.7135 2.97656 15.2734 3.53646 15.5859 4.34375C15.7422 4.76042 15.8464 5.46354 15.8984 6.45312C15.9245 7 15.9375 7.80729 15.9375 8.875V10.125C15.9375 11.1667 15.9245 11.974 15.8984 12.5469C15.8464 13.5104 15.7422 14.2135 15.5859 14.6562Z" fill="url(#paint0_linear_27_1188)"/>
<defs>
<linearGradient id="paint0_linear_27_1188" x1="9" y1="-2" x2="9" y2="21" gradientUnits="userSpaceOnUse">
<stop stop-color="#515ECF"/>
<stop offset="0.369792" stop-color="#C53184"/>
<stop offset="0.75" stop-color="#F3673A"/>
<stop offset="1" stop-color="#DB2E7A"/>
</linearGradient>
</defs>
</svg>
