<svg width="18" height="19" viewBox="0 0 18 19" fill="none" xmlns="http://www.w3.org/2000/svg">
<path d="M3.90625 18.25H0.273438V6.57031H3.90625V18.25ZM2.10938 4.96875C1.53646 4.96875 1.04167 4.76042 0.625 4.34375C0.208333 3.92708 0 3.43229 0 2.85938C0 2.28646 0.208333 1.79167 0.625 1.375C1.04167 0.958333 1.53646 0.75 2.10938 0.75C2.68229 0.75 3.17708 0.958333 3.59375 1.375C4.01042 1.79167 4.21875 2.28646 4.21875 2.85938C4.21875 3.43229 4.01042 3.92708 3.59375 4.34375C3.17708 4.76042 2.68229 4.96875 2.10938 4.96875ZM17.5 18.25H13.8672V12.5469C13.8672 11.6094 13.7891 10.9323 13.6328 10.5156C13.3464 9.8125 12.7865 9.46094 11.9531 9.46094C11.1198 9.46094 10.5339 9.77344 10.1953 10.3984C9.9349 10.8672 9.80469 11.5573 9.80469 12.4688V18.25H6.21094V6.57031H9.6875V8.17188H9.72656C9.98698 7.65104 10.4036 7.22135 10.9766 6.88281C11.6016 6.46615 12.3307 6.25781 13.1641 6.25781C14.8568 6.25781 16.0417 6.79167 16.7188 7.85938C17.2396 8.71875 17.5 10.0469 17.5 11.8438V18.25Z" fill="#144679"/>
</svg>
